<svg xmlns="http://www.w3.org/2000/svg" viewBox="0 0 760 480"><defs><linearGradient id="g" x1="0" y1="0" x2="1" y2="1"><stop offset="0" stop-color="#fff8f3"/><stop offset=".55" stop-color="#f8e3d8"/><stop offset="1" stop-color="#e9b39e"/></linearGradient><filter id="s"><feDropShadow dx="0" dy="16" stdDeviation="18" flood-color="#6f3f32" flood-opacity=".15"/></filter></defs><rect width="760" height="480" rx="38" fill="url(#g)"/><g filter="url(#s)"><rect x="74" y="86" width="170" height="110" rx="26" fill="#fffefa"/><rect x="295" y="86" width="170" height="110" rx="26" fill="#fffefa"/><rect x="516" y="86" width="170" height="110" rx="26" fill="#fffefa"/><rect x="178" y="284" width="180" height="110" rx="26" fill="#fffefa"/><rect x="404" y="284" width="180" height="110" rx="26" fill="#fffefa"/></g><g fill="#3f2e28" font-family="Inter,Arial" text-anchor="middle"><text x="159" y="130" font-size="24" font-weight="800">World</text><text x="159" y="160" font-size="24" font-weight="800">Model</text><text x="380" y="130" font-size="24" font-weight="800">VLA</text><text x="380" y="160" font-size="15" fill="#7d6257">Vision · Language · Action</text><text x="601" y="130" font-size="24" font-weight="800">WAM</text><text x="601" y="160" font-size="15" fill="#7d6257">Future + Action</text><text x="268" y="328" font-size="22" font-weight="800">Prediction</text><text x="268" y="358" font-size="15" fill="#7d6257">world-grounded state</text><text x="494" y="328" font-size="22" font-weight="800">Execution</text><text x="494" y="358" font-size="15" fill="#7d6257">embodied control</text></g><g stroke="#9a5c47" stroke-width="4" stroke-linecap="round" fill="none"><path d="M244 141 H295"/><path d="M465 141 H516"/><path d="M601 196 C600 260 568 284 494 284"/><path d="M159 196 C160 260 196 284 268 284"/><path d="M358 339 H404"/></g><g fill="#9a5c47"><path d="M292 132l14 9-14 9z"/><path d="M513 132l14 9-14 9z"/><path d="M401 330l14 9-14 9z"/></g></svg>